<svg width="45" height="45" viewBox="0 0 45 45" fill="none" xmlns="http://www.w3.org/2000/svg">
<path d="M5.29232 6.61504C5.2925 5.82352 5.56833 5.05677 6.07242 4.44652C6.57651 3.83627 7.27739 3.42062 8.05464 3.27099C8.83189 3.12136 9.63699 3.24708 10.3316 3.62656C11.0262 4.00603 11.567 4.61558 11.8611 5.35046L12.1611 6.09629C10.8772 7.03639 9.88144 8.31643 9.28607 9.79213C8.441 11.8643 8.42608 14.1822 9.2444 16.265C9.3213 16.4598 9.43655 16.637 9.5833 16.7863C9.73005 16.9357 9.9053 17.0539 10.0987 17.1342C10.292 17.2145 10.4995 17.255 10.7089 17.2535C10.9182 17.252 11.1251 17.2085 11.3173 17.1255L23.734 11.7796C24.1067 11.6194 24.4026 11.3205 24.5589 10.946C24.7152 10.5716 24.7197 10.1511 24.5715 9.77338C24.1746 8.7483 23.5775 7.81261 22.8148 7.021C22.0522 6.22938 21.1394 5.59773 20.1298 5.16296C18.5083 4.46664 16.7021 4.32601 14.9923 4.76296L14.7632 4.19004C14.1996 2.78048 13.1627 1.61122 11.8306 0.883251C10.4985 0.155278 8.95448 -0.0859461 7.46382 0.201041C5.97317 0.488028 4.62903 1.2853 3.66244 2.45582C2.69586 3.62635 2.16719 5.09701 2.16732 6.61504V20.9171H1.64648C1.23208 20.9171 0.834656 21.0817 0.54163 21.3748C0.248605 21.6678 0.0839844 22.0652 0.0839844 22.4796C0.0839844 22.894 0.248605 23.2915 0.54163 23.5845C0.834656 23.8775 1.23208 24.0421 1.64648 24.0421H2.16732V24.7817C2.16732 25.563 2.16732 26.0213 2.20065 26.5317C2.49648 31.1921 5.01315 35.4942 8.66315 38.3067L8.5819 38.4484L6.49857 42.615C6.31728 42.9853 6.28969 43.4123 6.42182 43.8028C6.55396 44.1934 6.83509 44.5159 7.20397 44.7001C7.57285 44.8842 7.99957 44.9151 8.39114 44.786C8.7827 44.6569 9.10738 44.3783 9.2944 44.0109L11.3111 39.9796C12.9903 40.8349 14.8121 41.3751 16.6861 41.5734C17.1965 41.6255 17.5069 41.6359 18.0361 41.6567H18.0507C19.5923 41.715 21.1007 41.7505 22.4798 41.7505C23.859 41.7505 25.3673 41.715 26.909 41.6567H26.9236C27.4527 41.6359 27.7652 41.6255 28.2736 41.5734C30.1476 41.3751 31.9694 40.8349 33.6486 39.9796L35.6652 44.013C35.757 44.1965 35.8841 44.3602 36.0391 44.4947C36.1942 44.6292 36.3742 44.7318 36.5689 44.7967C36.7636 44.8616 36.9692 44.8875 37.1739 44.873C37.3787 44.8584 37.5785 44.8037 37.7621 44.7119C37.9457 44.6201 38.1094 44.4931 38.2439 44.338C38.3783 44.183 38.481 44.003 38.5459 43.8082C38.6108 43.6135 38.6367 43.4079 38.6221 43.2032C38.6076 42.9985 38.5529 42.7986 38.4611 42.615L36.3777 38.4484L36.2986 38.3067C39.9465 35.4942 42.4652 31.19 42.7611 26.5317C42.7923 26.0213 42.7923 25.563 42.7923 24.7817V24.7025C42.7923 24.5775 42.7923 24.4463 42.784 24.3275C42.7775 24.2321 42.7678 24.1369 42.7548 24.0421H43.3132C43.7276 24.0421 44.125 23.8775 44.418 23.5845C44.711 23.2915 44.8757 22.894 44.8757 22.4796C44.8757 22.0652 44.711 21.6678 44.418 21.3748C44.125 21.0817 43.7276 20.9171 43.3132 20.9171H5.29232V6.61504Z" fill="#60BC9D"/>
</svg>
