<svg width="23" height="23" viewBox="0 0 23 23" fill="none" xmlns="http://www.w3.org/2000/svg">
<path d="M2.64591 3.30729C2.646 2.91153 2.78392 2.52815 3.03596 2.22303C3.28801 1.9179 3.63845 1.71008 4.02707 1.63526C4.4157 1.56045 4.81825 1.62331 5.16556 1.81305C5.51288 2.00279 5.78327 2.30756 5.93029 2.675L6.08029 3.04792C5.43835 3.51797 4.94047 4.15799 4.64279 4.89583C4.22026 5.9319 4.2128 7.09087 4.62196 8.13229C4.66041 8.22965 4.71803 8.31829 4.79141 8.39294C4.86478 8.4676 4.95241 8.52674 5.04909 8.56687C5.14576 8.607 5.24952 8.62729 5.35419 8.62654C5.45887 8.62579 5.56232 8.60401 5.65841 8.5625L11.8667 5.88958C12.0531 5.80947 12.201 5.66 12.2792 5.47279C12.3573 5.28558 12.3596 5.07531 12.2855 4.88646C12.0871 4.37392 11.7885 3.90607 11.4072 3.51027C11.0258 3.11446 10.5695 2.79864 10.0647 2.58125C9.25391 2.23309 8.35079 2.16278 7.49591 2.38125L7.38133 2.09479C7.09958 1.39001 6.58112 0.805384 5.91507 0.441397C5.24903 0.07741 4.47699 -0.0432019 3.73167 0.100292C2.98634 0.243785 2.31427 0.642421 1.83098 1.22768C1.34769 1.81295 1.08335 2.54828 1.08341 3.30729V10.4583H0.822998C0.615798 10.4583 0.417084 10.5406 0.270571 10.6872C0.124058 10.8337 0.041748 11.0324 0.041748 11.2396C0.041748 11.4468 0.124058 11.6455 0.270571 11.792C0.417084 11.9385 0.615798 12.0208 0.822998 12.0208H1.08341V12.3906C1.08341 12.7813 1.08341 13.0104 1.10008 13.2656C1.248 15.5958 2.50633 17.7469 4.33133 19.1531L4.29071 19.224L3.24904 21.3073C3.15839 21.4924 3.1446 21.7059 3.21067 21.9012C3.27673 22.0965 3.4173 22.2577 3.60174 22.3498C3.78618 22.4419 3.99954 22.4573 4.19532 22.3928C4.39111 22.3282 4.55344 22.1889 4.64696 22.0052L5.65529 19.9896C6.49489 20.4172 7.40578 20.6873 8.34279 20.7865C8.598 20.8125 8.75321 20.8177 9.01779 20.8281H9.02508C9.79591 20.8573 10.5501 20.875 11.2397 20.875C11.9292 20.875 12.6834 20.8573 13.4542 20.8281H13.4615C13.7261 20.8177 13.8824 20.8125 14.1365 20.7865C15.0735 20.6873 15.9844 20.4172 16.824 19.9896L17.8324 22.0063C17.8783 22.098 17.9418 22.1799 18.0193 22.2471C18.0968 22.3144 18.1869 22.3657 18.2842 22.3981C18.3816 22.4306 18.4844 22.4435 18.5867 22.4363C18.6891 22.429 18.789 22.4016 18.8808 22.3557C18.9726 22.3098 19.0544 22.2463 19.1217 22.1688C19.1889 22.0913 19.2402 22.0012 19.2727 21.9039C19.3051 21.8065 19.3181 21.7037 19.3108 21.6014C19.3036 21.499 19.2762 21.3991 19.2303 21.3073L18.1886 19.224L18.149 19.1531C19.973 17.7469 21.2324 15.5948 21.3803 13.2656C21.3959 13.0104 21.3959 12.7813 21.3959 12.3906V12.351C21.3959 12.2885 21.3959 12.2229 21.3917 12.1635C21.3885 12.1158 21.3837 12.0682 21.3772 12.0208H21.6563C21.8635 12.0208 22.0622 11.9385 22.2088 11.792C22.3553 11.6455 22.4376 11.4468 22.4376 11.2396C22.4376 11.0324 22.3553 10.8337 22.2088 10.6872C22.0622 10.5406 21.8635 10.4583 21.6563 10.4583H2.64591V3.30729Z" fill="#888888"/>
</svg>
