<svg width="21" height="19" viewBox="0 0 21 19" fill="none" xmlns="http://www.w3.org/2000/svg">
<path d="M17.375 8.25C18.1684 8.24988 18.9321 8.55154 19.5113 9.0938C20.0905 9.63606 20.4417 10.3783 20.4938 11.17L20.5 11.375V17.625C20.5003 17.7812 20.4421 17.9318 20.3369 18.0472C20.2316 18.1626 20.087 18.2345 19.9315 18.2486C19.7759 18.2627 19.6207 18.2181 19.4965 18.1235C19.3722 18.0289 19.2878 17.8912 19.26 17.7375L19.25 17.625V14.5H1.75V17.625C1.75029 17.7812 1.69209 17.9318 1.58686 18.0472C1.48164 18.1626 1.33702 18.2345 1.18147 18.2486C1.02593 18.2627 0.870738 18.2181 0.74646 18.1235C0.622183 18.0289 0.537825 17.8912 0.51 17.7375L0.5 17.625V11.375C0.499878 10.5816 0.801541 9.81786 1.3438 9.23869C1.88606 8.65953 2.62831 8.3083 3.42 8.25625L3.625 8.25H17.375ZM6.125 0.75H14.875C15.6684 0.749878 16.4321 1.05154 17.0113 1.5938C17.5905 2.13606 17.9417 2.87831 17.9937 3.67L18 3.875V7H15.5V6.375C15.5 6.22872 15.4488 6.08705 15.3551 5.97468C15.2615 5.8623 15.1314 5.78633 14.9875 5.76L14.875 5.75H11.75C11.6037 5.74995 11.4621 5.80121 11.3497 5.89486C11.2373 5.98851 11.1613 6.11861 11.135 6.2625L11.125 6.375V7H9.875V6.375C9.87505 6.22872 9.82379 6.08705 9.73014 5.97468C9.63649 5.8623 9.50639 5.78633 9.3625 5.76L9.25 5.75H6.125C5.97872 5.74995 5.83705 5.80121 5.72468 5.89486C5.6123 5.98851 5.53633 6.11861 5.51 6.2625L5.5 6.375V7H3V3.875C2.99988 3.0816 3.30154 2.31786 3.8438 1.73869C4.38606 1.15953 5.12831 0.808297 5.92 0.75625L6.125 0.75Z" fill="#888888"/>
</svg>
