<svg width="20" height="16" viewBox="0 0 20 16" fill="none" xmlns="http://www.w3.org/2000/svg">
<path d="M16.73 1.41L15.45 2.41L9.99995 6.46L4.54995 2.37L3.26995 1.37C2.96841 1.12055 2.6003 0.965044 2.21124 0.922754C1.82218 0.880464 1.42926 0.953248 1.08116 1.13209C0.73306 1.31093 0.445078 1.58797 0.252892 1.92888C0.0607053 2.26979 -0.0272399 2.6596 -4.84232e-05 3.05V14.64C-4.84232e-05 15.0007 0.143237 15.3466 0.398286 15.6017C0.653336 15.8567 0.999257 16 1.35995 16H4.54995V8.28L9.99995 12.37L15.45 8.28V16H18.64C19.0006 16 19.3466 15.8567 19.6016 15.6017C19.8567 15.3466 20 15.0007 20 14.64V3.05C20.0187 2.66297 19.9247 2.27881 19.7292 1.94423C19.5337 1.60965 19.2453 1.33905 18.8989 1.16533C18.5525 0.991619 18.1632 0.922263 17.7781 0.965699C17.3931 1.00913 17.0289 1.16349 16.73 1.41Z" fill="white"/>
</svg>
