<svg width="42" height="44" viewBox="0 0 42 44" fill="none" xmlns="http://www.w3.org/2000/svg">
<path d="M17.0094 0.293755C17.2162 0.39626 17.3977 0.543301 17.5409 0.724311C17.684 0.905321 17.7853 1.1158 17.8375 1.34063C17.8937 1.58751 19.4375 8.19375 19.4375 12.625C19.4375 15.5938 18.0562 18.2406 15.9062 19.9563C15.125 20.5813 14.75 21.2625 14.75 21.8313V23.35C14.75 23.4229 14.7542 23.4917 14.7625 23.5563C14.8688 24.3313 15.2531 27.2094 15.6125 30.1938C15.9656 33.1219 16.3125 36.3156 16.3125 37.625C16.3125 39.2826 15.654 40.8723 14.4819 42.0444C13.3098 43.2165 11.7201 43.875 10.0625 43.875C8.4049 43.875 6.81518 43.2165 5.64308 42.0444C4.47098 40.8723 3.8125 39.2826 3.8125 37.625C3.8125 36.3125 4.15937 33.125 4.5125 30.1938C4.87187 27.2094 5.25625 24.3313 5.3625 23.5563L5.375 23.35V21.8313C5.375 21.2625 5 20.5813 4.21875 19.9563C3.11713 19.0781 2.22759 17.963 1.61624 16.6937C1.00488 15.4245 0.687438 14.0338 0.6875 12.625C0.6875 8.20938 2.21875 1.6375 2.2875 1.34375C2.36874 0.99638 2.56528 0.686779 2.84507 0.465447C3.12485 0.244114 3.47138 0.124109 3.82813 0.125005C4.70313 0.125005 5.4125 0.83438 5.4125 1.70938V11.0781C5.40018 11.2892 5.43124 11.5005 5.50378 11.699C5.57631 11.8976 5.68876 12.0792 5.83421 12.2326C5.97965 12.386 6.15499 12.5079 6.34941 12.5909C6.54382 12.6739 6.75319 12.7162 6.96457 12.7151C7.17596 12.7141 7.38489 12.6697 7.57845 12.5847C7.77202 12.4998 7.94612 12.376 8.09 12.2212C8.23388 12.0663 8.3445 11.8836 8.41501 11.6843C8.48553 11.485 8.51445 11.2734 8.5 11.0625V1.68751C8.5 1.2731 8.66462 0.875676 8.95765 0.582651C9.25067 0.289625 9.6481 0.125005 10.0625 0.125005C10.4769 0.125005 10.8743 0.289625 11.1674 0.582651C11.4604 0.875676 11.625 1.2731 11.625 1.68751V11.1438C11.6337 11.554 11.805 11.944 12.1013 12.228C12.3975 12.5119 12.7944 12.6665 13.2047 12.6578C13.6149 12.6491 14.0049 12.4778 14.2889 12.1815C14.5728 11.8853 14.7275 11.4884 14.7187 11.0781V1.70313C14.7187 0.831255 15.425 0.125005 16.3 0.125005C16.3687 0.125005 16.675 0.125005 17.0094 0.293755ZM24.125 14.1875C24.125 10.4579 25.6066 6.88105 28.2438 4.24382C30.881 1.60659 34.4579 0.125005 38.1875 0.125005C38.6019 0.125005 38.9993 0.289625 39.2924 0.582651C39.5854 0.875676 39.75 1.2731 39.75 1.68751V20.3531L39.8094 20.9063C40.0579 23.2386 40.2965 25.5719 40.525 27.9063C40.9094 31.8313 41.3125 36.2313 41.3125 37.625C41.3125 39.2826 40.654 40.8723 39.4819 42.0444C38.3098 43.2165 36.7201 43.875 35.0625 43.875C33.4049 43.875 31.8152 43.2165 30.6431 42.0444C29.471 40.8723 28.8125 39.2826 28.8125 37.625C28.8125 36.2313 29.2156 31.8313 29.6 27.9063C29.7969 25.9156 29.9938 24.0094 30.1406 22.5969L30.2031 22H27.25C26.4212 22 25.6263 21.6708 25.0403 21.0847C24.4542 20.4987 24.125 19.7038 24.125 18.875V14.1875Z" fill="#60BC9D"/>
</svg>
