<svg width="40" height="36" viewBox="0 0 40 36" fill="none" xmlns="http://www.w3.org/2000/svg">
<path d="M33.75 15.5001C35.3368 15.4999 36.8643 16.1032 38.0226 17.1877C39.181 18.2722 39.8834 19.7567 39.9875 21.3401L40 21.7501V34.2501C40.0006 34.5625 39.8842 34.8637 39.6737 35.0946C39.4633 35.3254 39.174 35.4691 38.8629 35.4973C38.5519 35.5255 38.2415 35.4363 37.9929 35.2471C37.7444 35.0579 37.5756 34.7825 37.52 34.4751L37.5 34.2501V28.0001H2.5V34.2501C2.50058 34.5625 2.38418 34.8637 2.17373 35.0946C1.96328 35.3254 1.67403 35.4691 1.36295 35.4973C1.05186 35.5255 0.741476 35.4363 0.492921 35.2471C0.244366 35.0579 0.0756505 34.7825 0.0199998 34.4751L7.42023e-08 34.2501V21.7501C-0.000244291 20.1633 0.603082 18.6358 1.6876 17.4775C2.77212 16.3192 4.25662 15.6167 5.84 15.5126L6.25 15.5001H33.75ZM11.25 0.500122H28.75C30.3368 0.499878 31.8643 1.1032 33.0226 2.18772C34.181 3.27224 34.8834 4.75674 34.9875 6.34012L35 6.75012V13.0001H30V11.7501C30.0001 11.4576 29.8976 11.1742 29.7103 10.9495C29.523 10.7247 29.2628 10.5728 28.975 10.5201L28.75 10.5001H22.5C22.2074 10.5 21.9241 10.6026 21.6994 10.7898C21.4746 10.9771 21.3227 11.2373 21.27 11.5251L21.25 11.7501V13.0001H18.75V11.7501C18.7501 11.4576 18.6476 11.1742 18.4603 10.9495C18.273 10.7247 18.0128 10.5728 17.725 10.5201L17.5 10.5001H11.25C10.9574 10.5 10.6741 10.6026 10.4494 10.7898C10.2246 10.9771 10.0727 11.2373 10.02 11.5251L10 11.7501V13.0001H5V6.75012C4.99976 5.16333 5.60308 3.63584 6.6876 2.47751C7.77212 1.31917 9.25662 0.616716 10.84 0.512622L11.25 0.500122Z" fill="#60BC9D"/>
</svg>
