<svg width="42" height="44" viewBox="0 0 42 44" fill="none" xmlns="http://www.w3.org/2000/svg">
<path d="M0.166992 8.49996L14.7503 23.0833H0.166992V29.3333H21.0003L35.5837 43.9166L38.1878 41.3125L2.77116 5.89579L0.166992 8.49996ZM38.7087 23.0833H41.8337V29.3333H38.7087V23.0833ZM33.5003 23.0833H36.6253V29.3333H33.5003V23.0833ZM35.2712 6.16663C36.5628 4.89579 37.3545 3.14579 37.3545 1.20829H34.2295C34.2295 3.29163 32.4587 5.06246 30.3753 5.06246V8.18746C35.042 8.18746 38.7087 12 38.7087 16.6666V21H41.8337V16.6666C41.8337 12.0208 39.167 8.02079 35.2712 6.16663ZM26.2087 14.125H29.3962C31.5837 14.125 33.5003 15.6666 33.5003 18.3958V21H36.6253V17.6875C36.6253 13.9375 33.292 11.1041 29.3962 11.1041H26.2087C24.1253 11.1041 22.3545 9.06246 22.3545 6.93746C22.3545 4.81246 24.1253 3.29163 26.2087 3.29163V0.166626C24.3577 0.166626 22.5825 0.901929 21.2736 2.21078C19.9648 3.51962 19.2295 5.2948 19.2295 7.14579C19.2295 8.99678 19.9648 10.772 21.2736 12.0808C22.5825 13.3897 24.3577 14.125 26.2087 14.125ZM31.417 29.1875V23.0833H25.3128L31.417 29.1875Z" fill="#60BC9D"/>
</svg>
