<svg width="50" height="34" viewBox="0 0 50 34" fill="none" xmlns="http://www.w3.org/2000/svg">
<path d="M34.5741 16.4898C38.5179 16.4898 41.9107 12.9684 41.9107 8.3827C41.9107 3.85234 38.5 0.496094 34.5741 0.496094C30.6491 0.496094 27.2375 3.92556 27.2375 8.41931C27.2375 12.9684 30.6304 16.4898 34.5741 16.4898ZM13.4625 16.9122C16.8741 16.9122 19.8464 13.83 19.8464 9.84966C19.8464 5.90681 16.8554 2.98984 13.4625 2.98984C10.0518 2.98984 7.04286 5.98002 7.06161 9.88716C7.06161 13.83 10.033 16.9122 13.4634 16.9122M3.22857 33.4747H17.1679C15.2607 30.705 17.5902 25.1291 21.5339 22.0845C19.4982 20.7273 16.8741 19.7184 13.4446 19.7184C5.17232 19.7175 0 25.8247 0 30.9059C0 32.5577 0.916964 33.4747 3.22857 33.4747ZM23.0375 33.4747H46.0929C48.9723 33.4747 50 32.6488 50 31.0345C50 26.3023 44.075 19.7729 34.5562 19.7729C25.0554 19.7729 19.1304 26.3023 19.1304 31.0354C19.1304 32.6488 20.1571 33.4747 23.0375 33.4747Z" fill="#60BC9D"/>
</svg>
